<svg xmlns="http://www.w3.org/2000/svg" xmlns:xlink="http://www.w3.org/1999/xlink" version="1.1" width="256" height="256" viewBox="0 0 256 256" xml:space="preserve">

<defs>
</defs>
<g style="stroke: none; stroke-width: 0; stroke-dasharray: none; stroke-linecap: butt; stroke-linejoin: miter; stroke-miterlimit: 10; fill: none; fill-rule: nonzero; opacity: 1;" transform="translate(1.4065934065934016 1.4065934065934016) scale(2.81 2.81)" >
	<polygon points="6.89,23 6.89,67 45,89 83.11,67 83.11,23 45,1 " style="stroke: none; stroke-width: 1; stroke-dasharray: none; stroke-linecap: butt; stroke-linejoin: miter; stroke-miterlimit: 10; fill: rgb(29,157,190); fill-rule: nonzero; opacity: 1;" transform="  matrix(1 0 0 1 0 0) "/>
	<path d="M 45 90 c -0.173 0 -0.345 -0.045 -0.5 -0.134 l -38.105 -22 c -0.31 -0.179 -0.5 -0.509 -0.5 -0.866 V 23 c 0 -0.357 0.19 -0.688 0.5 -0.866 l 38.105 -22 c 0.31 -0.179 0.69 -0.179 1 0 l 38.105 22 c 0.31 0.179 0.5 0.509 0.5 0.866 v 44 c 0 0.357 -0.19 0.688 -0.5 0.866 l -38.105 22 C 45.345 89.955 45.173 90 45 90 z M 7.895 66.423 L 45 87.846 l 37.105 -21.423 V 23.577 L 45 2.155 L 7.895 23.577 V 66.423 z" style="stroke: none; stroke-width: 1; stroke-dasharray: none; stroke-linecap: butt; stroke-linejoin: miter; stroke-miterlimit: 10; fill: rgb(0,0,0); fill-rule: nonzero; opacity: 1;" transform=" matrix(1 0 0 1 0 0) " stroke-linecap="round" />
	<path d="M 26.831 71.448 c -0.443 0 -0.842 -0.295 -0.963 -0.733 l -9.588 -34.666 v 28.179 c 0 0.553 -0.448 1 -1 1 s -1 -0.447 -1 -1 V 28.683 c 0 -0.5 0.37 -0.924 0.866 -0.991 c 0.487 -0.071 0.965 0.242 1.098 0.724 l 9.588 34.666 V 21.396 c 0 -0.552 0.448 -1 1 -1 s 1 0.448 1 1 v 49.052 c 0 0.5 -0.37 0.924 -0.866 0.991 C 26.921 71.445 26.875 71.448 26.831 71.448 z" style="stroke: none; stroke-width: 1; stroke-dasharray: none; stroke-linecap: butt; stroke-linejoin: miter; stroke-miterlimit: 10; fill: rgb(0,0,0); fill-rule: nonzero; opacity: 1;" transform=" matrix(1 0 0 1 0 0) " stroke-linecap="round" />
	<path d="M 76.379 29.452 c -0.176 0 -0.354 -0.046 -0.517 -0.144 l -13.88 -8.388 c -0.473 -0.286 -0.624 -0.9 -0.338 -1.373 c 0.284 -0.473 0.897 -0.625 1.373 -0.339 l 13.88 8.388 c 0.473 0.286 0.624 0.9 0.338 1.373 C 77.048 29.28 76.718 29.452 76.379 29.452 z" style="stroke: none; stroke-width: 1; stroke-dasharray: none; stroke-linecap: butt; stroke-linejoin: miter; stroke-miterlimit: 10; fill: rgb(0,0,0); fill-rule: nonzero; opacity: 1;" transform=" matrix(1 0 0 1 0 0) " stroke-linecap="round" />
	<path d="M 35.185 76.069 c -0.552 0 -1 -0.447 -1 -1 V 15.354 c 0 -0.352 0.185 -0.678 0.487 -0.858 l 9.815 -5.865 c 0.318 -0.189 0.715 -0.189 1.03 0.002 l 13.354 8.07 c 0.473 0.286 0.624 0.9 0.338 1.373 c -0.285 0.472 -0.899 0.624 -1.373 0.339 l -12.839 -7.759 l -8.813 5.266 v 59.148 C 36.185 75.622 35.737 76.069 35.185 76.069 z" style="stroke: none; stroke-width: 1; stroke-dasharray: none; stroke-linecap: butt; stroke-linejoin: miter; stroke-miterlimit: 10; fill: rgb(0,0,0); fill-rule: nonzero; opacity: 1;" transform=" matrix(1 0 0 1 0 0) " stroke-linecap="round" />
	<path d="M 55.445 46 H 35.185 c -0.552 0 -1 -0.448 -1 -1 s 0.448 -1 1 -1 h 20.261 c 0.553 0 1 0.448 1 1 S 55.998 46 55.445 46 z" style="stroke: none; stroke-width: 1; stroke-dasharray: none; stroke-linecap: butt; stroke-linejoin: miter; stroke-miterlimit: 10; fill: rgb(0,0,0); fill-rule: nonzero; opacity: 1;" transform=" matrix(1 0 0 1 0 0) " stroke-linecap="round" />
	<path d="M 69.146 68.96 c -0.553 0 -1 -0.447 -1 -1 V 24.08 c 0 -0.552 0.447 -1 1 -1 s 1 0.448 1 1 v 43.88 C 70.146 68.513 69.698 68.96 69.146 68.96 z" style="stroke: none; stroke-width: 1; stroke-dasharray: none; stroke-linecap: butt; stroke-linejoin: miter; stroke-miterlimit: 10; fill: rgb(0,0,0); fill-rule: nonzero; opacity: 1;" transform=" matrix(1 0 0 1 0 0) " stroke-linecap="round" />
</g>
</svg>